<svg width="19" height="20" viewBox="0 0 19 20" fill="none" xmlns="http://www.w3.org/2000/svg">
<circle cx="9.67567" cy="9.88564" r="9.27724" fill="#FFAD61"/>
<path d="M13.3621 7.45188C11.0132 7.23708 9.7784 5.72822 9.76661 5.71242C9.74414 5.68474 9.71113 5.66895 9.6754 5.66895C9.63975 5.66895 9.60667 5.68474 9.5842 5.71242C9.57101 5.72821 8.33502 7.23706 5.98598 7.45188C5.92387 7.45717 5.87761 7.5099 5.87893 7.57049C5.9543 11.2458 7.3304 13.6257 9.65169 14.1002C9.65964 14.1015 9.66753 14.1028 9.67548 14.1028C9.68344 14.1028 9.69132 14.1015 9.69928 14.1002C12.0191 13.6271 13.394 11.2472 13.4693 7.57049C13.4706 7.5099 13.4243 7.45717 13.3621 7.45188Z" fill="#004737"/>
</svg>
