<svg width="19" height="20" viewBox="0 0 19 20" fill="none" xmlns="http://www.w3.org/2000/svg">
<circle cx="9.67567" cy="9.73915" r="9.27724" fill="#7B61FF"/>
<path fill-rule="evenodd" clip-rule="evenodd" d="M6.28433 9.79421C6.21317 9.75292 6.18869 9.66177 6.22998 9.59052C6.27126 9.51935 6.36266 9.49496 6.43383 9.53625L7.3254 10.051C7.39656 10.0923 7.42095 10.1835 7.37967 10.2547C7.33855 10.3259 7.24724 10.3502 7.17598 10.3089L6.28433 9.79421ZM6.28433 8.97347L8.06747 10.0029C8.13864 10.0442 8.22978 10.0199 8.27115 9.94861C8.31244 9.87736 8.28822 9.78613 8.21688 9.74493L6.43375 8.71528C6.36258 8.674 6.27126 8.69822 6.2299 8.76964C6.18861 8.8408 6.21316 8.93203 6.28433 8.97349V8.97347ZM9.48984 5.21266L8.25235 5.92717L12.265 8.24388V9.96056C12.265 10.0292 12.231 10.0881 12.1716 10.1224L11.2412 10.6594C11.2115 10.6765 11.1777 10.6765 11.1481 10.6594C11.1181 10.6422 11.1014 10.6126 11.1014 10.5785L11.1011 8.91576L7.08843 6.59906L5.85093 7.31365C5.73207 7.38233 5.66406 7.50002 5.66406 7.63721V11.8391C5.66406 11.9764 5.73207 12.0942 5.85093 12.1627L9.48987 14.2638C9.60873 14.3324 9.74466 14.3324 9.8636 14.2638L13.5028 12.1627C13.6215 12.0942 13.6895 11.9764 13.6895 11.8391V7.63721C13.6895 7.49995 13.6215 7.38216 13.5028 7.31365L9.8636 5.21264C9.74466 5.14396 9.60864 5.14396 9.48987 5.21264L9.48984 5.21266Z" fill="#032019"/>
</svg>
