<svg width="89" height="58" viewBox="0 0 89 58" fill="none" xmlns="http://www.w3.org/2000/svg">
<path d="M23.0251 21.54V12.51L18.8251 0.180001H22.0651L24.5251 8.67H24.5851L27.0451 0.180001H30.2851L26.0851 12.51V21.54H23.0251Z" fill="#004737"/>
<path d="M31.626 5.22C31.626 4.36 31.776 3.6 32.076 2.94C32.376 2.28 32.776 1.73 33.276 1.29C33.756 0.870001 34.296 0.550001 34.896 0.330001C35.516 0.11 36.136 0 36.756 0C37.376 0 37.986 0.11 38.586 0.330001C39.206 0.550001 39.766 0.870001 40.266 1.29C40.746 1.73 41.136 2.28 41.436 2.94C41.736 3.6 41.886 4.36 41.886 5.22V16.5C41.886 17.4 41.736 18.17 41.436 18.81C41.136 19.45 40.746 19.98 40.266 20.4C39.766 20.84 39.206 21.17 38.586 21.39C37.986 21.61 37.376 21.72 36.756 21.72C36.136 21.72 35.516 21.61 34.896 21.39C34.296 21.17 33.756 20.84 33.276 20.4C32.776 19.98 32.376 19.45 32.076 18.81C31.776 18.17 31.626 17.4 31.626 16.5V5.22ZM34.686 16.5C34.686 17.24 34.886 17.79 35.286 18.15C35.706 18.49 36.196 18.66 36.756 18.66C37.316 18.66 37.796 18.49 38.196 18.15C38.616 17.79 38.826 17.24 38.826 16.5V5.22C38.826 4.48 38.616 3.94 38.196 3.6C37.796 3.24 37.316 3.06 36.756 3.06C36.196 3.06 35.706 3.24 35.286 3.6C34.886 3.94 34.686 4.48 34.686 5.22V16.5Z" fill="#004737"/>
<path d="M54.4794 0.180001V16.74C54.4794 17.44 54.3494 18.09 54.0894 18.69C53.8494 19.27 53.4994 19.79 53.0394 20.25C52.5794 20.71 52.0494 21.07 51.4494 21.33C50.8494 21.59 50.2094 21.72 49.5294 21.72C48.8494 21.72 48.2094 21.59 47.6094 21.33C47.0294 21.07 46.5094 20.71 46.0494 20.25C45.5894 19.79 45.2294 19.27 44.9694 18.69C44.7094 18.09 44.5794 17.44 44.5794 16.74V0.180001H47.6394V16.44C47.6394 17.2 47.8194 17.76 48.1794 18.12C48.5394 18.48 48.9894 18.66 49.5294 18.66C50.0694 18.66 50.5194 18.48 50.8794 18.12C51.2394 17.76 51.4194 17.2 51.4194 16.44V0.180001H54.4794Z" fill="#004737"/>
<path d="M60.4129 3.06V9.72H62.1529C62.6929 9.72 63.1229 9.65 63.4429 9.51C63.7629 9.35 64.0129 9.13 64.1929 8.85C64.3529 8.57 64.4629 8.23 64.5229 7.83C64.5829 7.41 64.6129 6.93 64.6129 6.39C64.6129 5.85 64.5829 5.38 64.5229 4.98C64.4629 4.56 64.3428 4.2 64.1628 3.9C63.7828 3.34 63.0629 3.06 62.0029 3.06H60.4129ZM57.3529 21.54V0.180001H62.2729C65.8729 0.180001 67.6729 2.27 67.6729 6.45C67.6729 7.71 67.4729 8.78 67.0729 9.66C66.6929 10.54 66.0129 11.25 65.0329 11.79L68.3329 21.54H65.0928L62.2429 12.42H60.4129V21.54H57.3529Z" fill="#004737"/>
<path d="M9.9 51.45V52.77C9.9 53.43 9.77 54.06 9.51 54.66C9.27 55.24 8.93 55.76 8.49 56.22C8.05 56.68 7.53 57.05 6.93 57.33C6.35 57.59 5.72 57.72 5.04 57.72C4.46 57.72 3.87 57.64 3.27 57.48C2.67 57.32 2.13 57.04 1.65 56.64C1.17 56.24 0.77 55.73 0.45 55.11C0.15 54.47 0 53.66 0 52.68V40.92C0 40.22 0.12 39.57 0.36 38.97C0.6 38.37 0.94 37.85 1.38 37.41C1.82 36.97 2.34 36.63 2.94 36.39C3.56 36.13 4.24 36 4.98 36C6.42 36 7.59 36.47 8.49 37.41C8.93 37.87 9.27 38.42 9.51 39.06C9.77 39.68 9.9 40.36 9.9 41.1V42.3H6.84V41.28C6.84 40.68 6.67 40.16 6.33 39.72C5.99 39.28 5.53 39.06 4.95 39.06C4.19 39.06 3.68 39.3 3.42 39.78C3.18 40.24 3.06 40.83 3.06 41.55V52.47C3.06 53.09 3.19 53.61 3.45 54.03C3.73 54.45 4.22 54.66 4.92 54.66C5.12 54.66 5.33 54.63 5.55 54.57C5.79 54.49 6.01 54.37 6.21 54.21C6.39 54.05 6.54 53.83 6.66 53.55C6.78 53.27 6.84 52.92 6.84 52.5V51.45H9.9Z" fill="#004737"/>
<path d="M12.2168 41.22C12.2168 40.36 12.3668 39.6 12.6668 38.94C12.9668 38.28 13.3668 37.73 13.8668 37.29C14.3468 36.87 14.8868 36.55 15.4868 36.33C16.1068 36.11 16.7268 36 17.3468 36C17.9668 36 18.5768 36.11 19.1768 36.33C19.7968 36.55 20.3568 36.87 20.8568 37.29C21.3368 37.73 21.7268 38.28 22.0268 38.94C22.3268 39.6 22.4768 40.36 22.4768 41.22V52.5C22.4768 53.4 22.3268 54.17 22.0268 54.81C21.7268 55.45 21.3368 55.98 20.8568 56.4C20.3568 56.84 19.7968 57.17 19.1768 57.39C18.5768 57.61 17.9668 57.72 17.3468 57.72C16.7268 57.72 16.1068 57.61 15.4868 57.39C14.8868 57.17 14.3468 56.84 13.8668 56.4C13.3668 55.98 12.9668 55.45 12.6668 54.81C12.3668 54.17 12.2168 53.4 12.2168 52.5V41.22ZM15.2768 52.5C15.2768 53.24 15.4768 53.79 15.8768 54.15C16.2968 54.49 16.7868 54.66 17.3468 54.66C17.9068 54.66 18.3868 54.49 18.7868 54.15C19.2068 53.79 19.4168 53.24 19.4168 52.5V41.22C19.4168 40.48 19.2068 39.94 18.7868 39.6C18.3868 39.24 17.9068 39.06 17.3468 39.06C16.7868 39.06 16.2968 39.24 15.8768 39.6C15.4768 39.94 15.2768 40.48 15.2768 41.22V52.5Z" fill="#004737"/>
<path d="M25.1702 57.54V36.18H28.1102L32.0402 47.49H32.1002L36.0002 36.18H38.9702V57.54H35.9102V44.55H35.8502L32.8202 53.73H31.2902L28.2902 44.55H28.2302V57.54H25.1702Z" fill="#004737"/>
<path d="M41.8402 57.54V36.18H46.4302C47.2702 36.18 48.0102 36.29 48.6502 36.51C49.2902 36.73 49.8702 37.12 50.3902 37.68C50.9102 38.24 51.2702 38.9 51.4702 39.66C51.6702 40.4 51.7702 41.41 51.7702 42.69C51.7702 43.65 51.7102 44.46 51.5902 45.12C51.4902 45.78 51.2602 46.4 50.9002 46.98C50.4802 47.68 49.9202 48.23 49.2202 48.63C48.5202 49.01 47.6002 49.2 46.4602 49.2H44.9002V57.54H41.8402ZM44.9002 39.06V46.32H46.3702C46.9902 46.32 47.4702 46.23 47.8102 46.05C48.1502 45.87 48.4002 45.62 48.5602 45.3C48.7202 45 48.8102 44.63 48.8302 44.19C48.8702 43.75 48.8902 43.26 48.8902 42.72C48.8902 42.22 48.8802 41.75 48.8602 41.31C48.8402 40.85 48.7502 40.45 48.5902 40.11C48.4302 39.77 48.1902 39.51 47.8702 39.33C47.5502 39.15 47.0902 39.06 46.4902 39.06H44.9002Z" fill="#004737"/>
<path d="M59.1237 50.07L57.6237 42.33H57.5637L56.0637 50.07H59.1237ZM51.5637 57.54L56.3337 36.18H58.8837L63.6537 57.54H60.5937L59.6937 52.95H55.5237L54.6237 57.54H51.5637Z" fill="#004737"/>
<path d="M65.0405 57.54V36.18H67.9805L72.6005 49.05H72.6605V36.18H75.7205V57.54H72.8405L68.1605 44.7H68.1005V57.54H65.0405Z" fill="#004737"/>
<path d="M81.3405 57.54V48.51L77.1405 36.18H80.3805L82.8405 44.67H82.9005L85.3605 36.18H88.6005L84.4005 48.51V57.54H81.3405Z" fill="#004737"/>
</svg>
