<svg width="110" height="70" viewBox="0 0 110 70" fill="none" xmlns="http://www.w3.org/2000/svg">
<path d="M10 51.5508H99" stroke="#004737" stroke-width="2"/>
<path d="M50.3096 34.1874C48.8388 36.2239 48.9745 38.4189 50.6263 40.0707C52.4026 41.8469 54.5861 41.8582 56.419 40.3422L55.1066 39.0297C53.9413 39.8782 52.742 39.9688 51.7916 39.0185C50.83 38.0568 50.7734 36.7784 51.6219 35.4999L53.1832 37.0612L54.2015 36.3371L52.4139 34.5496C52.5157 34.4477 52.6628 34.278 52.7873 34.1536C52.8778 34.0631 52.9796 33.9613 53.0927 33.8707L55.0387 35.8166L56.0569 35.0926L54.0431 33.0787C55.3102 32.151 56.6452 32.1962 57.6182 33.1692C58.5799 34.1309 58.512 35.3528 57.6408 36.4955L58.9645 37.8192C60.4919 35.9977 60.4579 33.7915 58.6817 32.0153C57.0073 30.3409 54.7558 30.239 52.7307 31.7664L51.95 30.9857L51.0789 31.8569L51.803 32.581C51.6672 32.6941 51.588 32.7733 51.4862 32.8751C51.3617 32.9996 51.2033 33.1579 51.1241 33.2597L50.4001 32.5357L49.5289 33.4069L50.3096 34.1874Z" fill="#004737"/>
<path fill-rule="evenodd" clip-rule="evenodd" d="M47.4247 14.242C48.2057 13.461 49.4721 13.461 50.2531 14.242L75.7087 39.6977C76.4898 40.4787 76.4898 41.745 75.7087 42.5261L67.2353 50.9995H70V51.0633L77.123 43.9403C78.6851 42.3782 78.6851 39.8456 77.123 38.2835L51.6673 12.8278C50.1052 11.2657 47.5726 11.2657 46.0105 12.8278L31.8285 27.0098C30.2664 28.5719 30.2664 31.1045 31.8285 32.6666L50.1615 50.9995H52.9899L33.2427 31.2524C32.4617 30.4714 32.4617 29.205 33.2427 28.424L47.4247 14.242Z" fill="#004737"/>
</svg>
