<svg width="110" height="70" viewBox="0 0 110 70" fill="none" xmlns="http://www.w3.org/2000/svg">
<rect x="26" y="17" width="57" height="36" rx="5" stroke="#004737" stroke-width="2"/>
<rect x="43" y="48" width="23" height="2" rx="1" fill="#004737"/>
<path d="M50.4581 35.385C50.8181 37.71 52.3481 39.09 54.5081 39.09C56.7281 39.09 58.1231 37.71 58.3631 35.625H57.0131C56.7731 37.005 55.9631 37.92 54.5531 37.92C53.1131 37.92 52.0931 36.99 51.7931 35.385H54.1331L54.2831 34.365H51.7181C51.7031 34.185 51.6881 33.93 51.6881 33.735C51.6881 33.6 51.6881 33.45 51.7031 33.27H54.5381L54.6881 32.25H51.7931C52.0031 30.57 53.0531 29.58 54.5381 29.58C55.9481 29.58 56.8181 30.495 57.0131 31.875H58.3781C58.1681 29.79 56.7281 28.41 54.4931 28.41C52.2881 28.41 50.7581 29.85 50.4581 32.25H49.4231V33.27H50.3981C50.3831 33.465 50.3831 33.6 50.3831 33.75C50.3831 33.945 50.3831 34.185 50.3981 34.365H49.4231V35.385H50.4581Z" fill="#004737"/>
<circle cx="54.5" cy="33.5" r="9.75" stroke="#004737" stroke-width="1.5"/>
</svg>
