<svg width="110" height="70" viewBox="0 0 110 70" fill="none" xmlns="http://www.w3.org/2000/svg">
<path d="M43.6989 31.064C43.6989 33.586 45.6489 35.432 48.2749 35.432C50.9009 35.432 52.8509 33.586 52.8509 31.064C52.8509 28.49 50.9009 26.644 48.2749 26.644C45.6489 26.644 43.6989 28.49 43.6989 31.064ZM48.8729 45L61.2749 26.8H59.1689L46.7669 45H48.8729ZM50.9269 31.064C50.9269 32.598 49.8089 33.716 48.2749 33.716C46.7409 33.716 45.6229 32.598 45.6229 31.064C45.6229 29.504 46.7409 28.36 48.2749 28.36C49.8089 28.36 50.9269 29.504 50.9269 31.064ZM55.1389 40.788C55.1389 43.31 57.0889 45.156 59.7149 45.156C62.3409 45.156 64.2909 43.31 64.2909 40.788C64.2909 38.214 62.3409 36.368 59.7149 36.368C57.0889 36.368 55.1389 38.214 55.1389 40.788ZM62.3669 40.788C62.3669 42.322 61.2489 43.44 59.7149 43.44C58.1809 43.44 57.0629 42.322 57.0629 40.788C57.0629 39.228 58.1809 38.084 59.7149 38.084C61.2489 38.084 62.3669 39.228 62.3669 40.788Z" fill="#004737"/>
<path d="M60.2383 15.2238L60.4243 15.3238L60.6348 15.3402L67.1317 15.8446L70.2895 21.5449L70.3919 21.7296L70.5601 21.8572L75.753 25.7941L75.3277 32.2967L75.3139 32.5074L75.3865 32.7057L77.6266 38.8251L73.7532 44.0655L73.6277 44.2353L73.5816 44.4414L72.1576 50.8004L66.066 53.1148L65.8686 53.1898L65.7183 53.3382L61.0825 57.918L54.7066 56.5716L54.5 56.5279L54.2934 56.5716L47.9175 57.918L43.2817 53.3382L43.1314 53.1898L42.934 53.1148L36.8424 50.8004L35.4184 44.4414L35.3723 44.2353L35.2468 44.0655L31.3734 38.8251L33.6135 32.7057L33.6861 32.5074L33.6723 32.2967L33.247 25.7941L38.4399 21.8572L38.6081 21.7296L38.7105 21.5449L41.8683 15.8446L48.3652 15.3402L48.5757 15.3238L48.7617 15.2238L54.5 12.1356L60.2383 15.2238Z" stroke="#004737" stroke-width="2"/>
<path d="M60.2383 15.2238L60.4243 15.3238L60.6348 15.3402L67.1317 15.8446L70.2895 21.5449L70.3919 21.7296L70.5601 21.8572L75.753 25.7941L75.3277 32.2967L75.3139 32.5074L75.3865 32.7057L77.6266 38.8251L73.7532 44.0655L73.6277 44.2353L73.5816 44.4414L72.1576 50.8004L66.066 53.1148L65.8686 53.1898L65.7183 53.3382L61.0825 57.918L54.7066 56.5716L54.5 56.5279L54.2934 56.5716L47.9175 57.918L43.2817 53.3382L43.1314 53.1898L42.934 53.1148L36.8424 50.8004L35.4184 44.4414L35.3723 44.2353L35.2468 44.0655L31.3734 38.8251L33.6135 32.7057L33.6861 32.5074L33.6723 32.2967L33.247 25.7941L38.4399 21.8572L38.6081 21.7296L38.7105 21.5449L41.8683 15.8446L48.3652 15.3402L48.5757 15.3238L48.7617 15.2238L54.5 12.1356L60.2383 15.2238Z" stroke="#004737" stroke-width="2"/>
</svg>
