<svg width="110" height="70" viewBox="0 0 110 70" fill="none" xmlns="http://www.w3.org/2000/svg">
<path d="M47.4239 28.124C46.8152 28.124 46.3218 28.6174 46.3218 29.2262V32.4325C46.3218 33.0412 46.8152 33.5346 47.4239 33.5346C48.0326 33.5346 48.526 33.0412 48.526 32.4325V29.2262C48.526 28.6178 48.0326 28.124 47.4239 28.124Z" fill="#004737"/>
<path d="M62.2515 33.5351C62.8602 33.5351 63.3537 33.0417 63.3537 32.433V29.2266C63.3537 28.6179 62.8602 28.1245 62.2515 28.1245C61.6428 28.1245 61.1494 28.6179 61.1494 29.2266V32.433C61.1494 33.0416 61.6432 33.5351 62.2515 33.5351Z" fill="#004737"/>
<path d="M62.2294 41.673C61.7989 41.2425 61.1015 41.2425 60.671 41.673C59.113 43.231 57.0411 44.0888 54.8379 44.0888C52.6341 44.0888 50.5625 43.2311 49.0049 41.673C48.5747 41.2425 47.8762 41.2425 47.4464 41.673C47.0159 42.1031 47.0159 42.8009 47.4464 43.2314C49.4209 45.2058 52.0458 46.2931 54.8383 46.2931C57.6305 46.2931 60.2558 45.2055 62.2302 43.2314C62.66 42.8005 62.66 42.1031 62.2295 41.673H62.2294Z" fill="#004737"/>
<path d="M53.6021 39.3122C55.5995 39.3122 56.9416 37.9705 56.9416 35.9728V29.2266C56.9416 28.6179 56.4481 28.1245 55.8394 28.1245C55.2307 28.1245 54.7373 28.6179 54.7373 29.2266V35.9728C54.7373 36.979 54.1308 37.108 53.6021 37.108C52.9934 37.108 52.5 37.6014 52.5 38.2101C52.5 38.8188 52.9934 39.3122 53.6021 39.3122V39.3122Z" fill="#004737"/>
<path d="M36.1021 30.3285C36.7108 30.3285 37.2043 29.8351 37.2043 29.2264V23.5962C37.2043 20.0714 40.0714 17.2043 43.5962 17.2043H47.2233C47.832 17.2043 48.3254 16.7108 48.3254 16.1021C48.3254 15.4931 47.8316 15 47.2229 15H43.5962C38.8565 15 35 18.8565 35 23.5962V29.2271C35 29.8355 35.4931 30.3285 36.1021 30.3285V30.3285Z" fill="#004737"/>
<path d="M47.2229 52.4704H43.5962C40.0717 52.4704 37.2043 49.6033 37.2043 46.0788V40.4483C37.2043 39.8396 36.7108 39.3462 36.1021 39.3462C35.4931 39.3462 35 39.8396 35 40.4483V46.0788C35 50.8186 38.8565 54.6747 43.5962 54.6747H47.2233C47.832 54.6747 48.3254 54.1813 48.3254 53.5726C48.3254 52.9635 47.8316 52.4704 47.2229 52.4704V52.4704Z" fill="#004737"/>
<path d="M66.0793 15H62.4522C61.8435 15 61.3501 15.4934 61.3501 16.1021C61.3501 16.7108 61.8435 17.2043 62.4522 17.2043H66.0793C69.6038 17.2043 72.4713 20.0714 72.4713 23.5962V29.2271C72.4713 29.8358 72.9647 30.3293 73.5734 30.3293C74.1821 30.3293 74.6755 29.8358 74.6755 29.2271V23.5962C74.6755 18.8565 70.819 15 66.0793 15V15Z" fill="#004737"/>
<path d="M73.5724 39.3467C72.9637 39.3467 72.4703 39.8401 72.4703 40.4488V46.0794C72.4703 49.6038 69.6028 52.471 66.0783 52.471H62.4513C61.8426 52.471 61.3491 52.9644 61.3491 53.5731C61.3491 54.1818 61.8425 54.6752 62.4513 54.6752H66.0783C70.818 54.6752 74.6746 50.8191 74.6746 46.0794V40.4488C74.6746 39.8401 74.1811 39.3467 73.5724 39.3467V39.3467Z" fill="#004737"/>
</svg>
