<svg width="110" height="70" viewBox="0 0 110 70" fill="none" xmlns="http://www.w3.org/2000/svg">
<path d="M54.5065 13.1692C55.95 14.7644 62.9175 21.7095 74.9926 22.9026C74.4944 43.0101 66.8389 55.4819 54.5077 57.9923C42.1675 55.4747 34.5056 43.0011 34.0074 22.9025C40.7063 22.2404 45.8348 19.8059 49.3122 17.5074C51.0773 16.3406 52.4192 15.2076 53.3289 14.3556C53.7839 13.9294 54.1314 13.573 54.3701 13.3172C54.4204 13.2634 54.4658 13.2139 54.5065 13.1692ZM54.2527 12.8785C54.2557 12.8821 54.2588 12.8859 54.2623 12.89C54.2589 12.8863 54.2557 12.8825 54.2525 12.8787L54.2527 12.8785Z" stroke="#004737" stroke-width="2"/>
</svg>
