<svg width="110" height="70" viewBox="0 0 110 70" fill="none" xmlns="http://www.w3.org/2000/svg">
<path d="M67.6213 49.8257C68.1082 49.8257 68.503 49.4308 68.503 48.9439V38.8051C68.503 38.3182 68.1082 37.9233 67.6213 37.9233H53.5142C53.0273 37.9233 52.6328 38.3182 52.6328 38.8051V48.9439C52.6328 49.4308 53.0273 49.8257 53.5142 49.8257H67.6213ZM54.3967 39.6859H66.7398V48.0617H54.3967V39.6859Z" fill="#004737"/>
<path d="M49.5464 54.6747H71.588C72.0749 54.6747 72.4698 54.2798 72.4698 53.7929V32.6328H70.7067V52.9105H50.4281V39.6859C50.4281 38.1111 49.5878 36.6559 48.2238 35.8683C46.8599 35.0807 45.1793 35.0807 43.8154 35.8683C42.4515 36.6558 41.6112 38.1111 41.6112 39.6859V52.9105H38.9662V32.6328H37.2031V53.7929C37.2031 54.2798 37.5976 54.6747 38.0845 54.6747H42.4929C42.9798 54.6747 43.3747 54.2798 43.3747 53.7929V39.6859C43.3747 38.7412 43.8787 37.8678 44.6972 37.3955C45.5157 36.9228 46.5236 36.9228 47.3421 37.3955C48.1606 37.8678 48.6645 38.7412 48.6645 39.6859V53.7929C48.6645 54.2798 49.0594 54.6747 49.5463 54.6747H49.5464Z" fill="#004737"/>
<path d="M36.3748 29.9119C37.3213 30.4272 38.3852 30.6883 39.4626 30.669C40.5283 30.6872 41.581 30.4326 42.5206 29.9294C42.8071 29.7669 43.0715 29.568 43.3071 29.3374C43.534 29.56 43.7885 29.753 44.0638 29.9119C45.0106 30.4261 46.0746 30.6854 47.152 30.6643C48.8104 30.6643 50.1704 30.1665 50.999 29.3397H50.9986C51.2252 29.5615 51.4786 29.7535 51.7531 29.912C52.6996 30.4261 53.7636 30.6854 54.8406 30.6643C56.4972 30.6643 57.8564 30.1676 58.6851 29.3418C59.5138 30.1676 60.8733 30.6643 62.53 30.6643C64.1884 30.6643 65.5487 30.1665 66.3774 29.3393C66.5879 29.5459 66.8224 29.7269 67.0755 29.8789C68.9586 30.8771 71.2025 30.9261 73.1275 30.0117C73.8544 29.6331 74.3849 28.9623 74.586 28.1681C74.7871 27.3736 74.6394 26.5311 74.1802 25.8526L67.1053 15.388C66.9414 15.1454 66.6676 15 66.3745 15H43.3071C43.014 15 42.7406 15.1454 42.5766 15.388L35.4981 25.8582C35.0494 26.5232 34.8948 27.3439 35.0712 28.1264C35.2366 28.878 35.7094 29.5256 36.3748 29.9121L36.3748 29.9119ZM36.9594 26.8456L43.7754 16.7636H65.9064L72.7191 26.84C72.8973 27.1029 72.9547 27.4295 72.8762 27.7374C72.798 28.0451 72.5915 28.3043 72.3093 28.4501C70.9323 29.0846 69.3411 29.0552 67.9885 28.3701C67.5474 28.1738 67.2616 27.7382 67.2565 27.2552C67.2565 26.7684 66.8617 26.3735 66.3748 26.3735C65.8879 26.3738 65.4934 26.7684 65.4934 27.2552C65.4934 28.3359 64.0025 28.901 62.5303 28.901C61.0581 28.901 59.5672 28.3356 59.5672 27.2552H59.5668C59.5668 26.7684 59.1723 26.3738 58.6854 26.3738C58.1986 26.3738 57.8037 26.7684 57.8037 27.2552C57.8037 28.3359 56.3132 28.901 54.841 28.901C53.3691 28.901 51.8786 28.3356 51.8786 27.2552C51.8786 26.7684 51.4841 26.3738 50.9972 26.3738C50.51 26.3738 50.1154 26.7684 50.1154 27.2552C50.1154 28.3359 48.6246 28.901 47.1524 28.901C45.6798 28.9014 44.1889 28.3359 44.1889 27.2552C44.1889 26.7684 43.7944 26.3738 43.3075 26.3738C42.8206 26.3738 42.4257 26.7684 42.4257 27.2552C42.4257 27.4272 42.4257 27.9508 41.6436 28.3999V28.4003C40.2604 29.0719 38.6445 29.0682 37.2646 28.3901C37.0221 28.2476 36.8504 28.0101 36.7908 27.7356C36.7221 27.4283 36.7832 27.1065 36.9595 26.8458L36.9594 26.8456Z" fill="#004737"/>
</svg>
