<svg width="251" height="45" viewBox="0 0 251 45" fill="none" xmlns="http://www.w3.org/2000/svg">
<path d="M192.675 32.3335V34.0725C192.675 34.1868 192.63 34.2963 192.549 34.3771C192.469 34.4579 192.36 34.5033 192.246 34.5033H191.125C188.912 34.5033 188.083 33.6056 187.967 32.0477C187.964 32.0275 187.956 32.0086 187.943 31.9932C187.93 31.9779 187.913 31.9669 187.893 31.9616C187.874 31.9564 187.853 31.9572 187.834 31.9639C187.815 31.9707 187.798 31.983 187.787 31.9993C186.674 33.4888 184.944 34.7126 182.058 34.7126C178.198 34.7126 175.576 32.7682 175.576 29.5477C175.576 26.0092 178.026 24.0367 182.646 24.0367H187.815V22.829C187.815 20.5424 186.213 19.1536 183.439 19.1536C181.093 19.1536 179.488 20.2042 179.035 21.8387C179.009 21.9247 178.956 22.0001 178.884 22.0536C178.812 22.1072 178.724 22.1363 178.635 22.1366H176.633C176.571 22.1333 176.51 22.1164 176.455 22.0872C176.4 22.058 176.351 22.0172 176.313 21.9675C176.275 21.9178 176.248 21.8604 176.234 21.7992C176.221 21.7381 176.22 21.6746 176.233 21.6132C176.853 18.4652 179.576 16.6255 183.595 16.6255C188.079 16.6255 190.661 18.8798 190.661 23.0021V30.7313C190.661 31.6692 191.005 31.9108 191.798 31.9108H192.266C192.375 31.9159 192.478 31.9624 192.554 32.0409C192.63 32.1194 192.673 32.224 192.675 32.3335ZM187.815 26.4279H182.37C179.852 26.4279 178.439 27.3618 178.439 29.3746C178.439 31.1057 179.92 32.2852 182.266 32.2852C185.781 32.2852 187.815 30.2401 187.815 27.2934V26.4279Z" fill="#004737"/>
<path d="M204.076 17.2575V19.1657C204.076 19.2222 204.065 19.2782 204.043 19.3305C204.022 19.3828 203.99 19.4303 203.951 19.4703C203.911 19.5102 203.864 19.542 203.812 19.5636C203.76 19.5853 203.704 19.5964 203.648 19.5964H202.663C198.976 19.5964 197.975 22.6841 197.975 25.4899V33.6458C197.974 33.8736 197.883 34.0917 197.723 34.2524C197.562 34.4131 197.345 34.5033 197.118 34.5033H196.001C195.775 34.5033 195.558 34.413 195.398 34.2522C195.238 34.0914 195.148 33.8732 195.148 33.6458V17.6842C195.148 17.5713 195.17 17.4594 195.212 17.3549C195.255 17.2504 195.317 17.1554 195.397 17.0753C195.476 16.9953 195.57 16.9318 195.674 16.8884C195.778 16.8451 195.889 16.8228 196.001 16.8228H197.222C197.326 16.8228 197.426 16.8608 197.504 16.9297C197.582 16.9986 197.633 17.0936 197.647 17.1971L197.935 19.21C197.937 19.2305 197.946 19.2498 197.96 19.265C197.974 19.2803 197.993 19.2909 198.013 19.2953C198.033 19.2997 198.054 19.2977 198.073 19.2897C198.092 19.2816 198.108 19.2678 198.119 19.2502C198.96 17.9821 200.325 16.8066 203.283 16.8066H203.648C203.706 16.8066 203.763 16.8184 203.816 16.8413C203.87 16.8642 203.918 16.8977 203.958 16.9398C203.998 16.982 204.029 17.0319 204.049 17.0865C204.07 17.1411 204.079 17.1993 204.076 17.2575Z" fill="#004737"/>
<path d="M207.38 10.2246H208.497C208.723 10.2246 208.94 10.3149 209.1 10.4757C209.26 10.6365 209.35 10.8547 209.35 11.0821V25.9648C209.351 25.9847 209.358 26.0038 209.37 26.0199C209.382 26.036 209.398 26.0484 209.416 26.0556C209.435 26.0627 209.455 26.0645 209.474 26.0605C209.494 26.0566 209.512 26.0471 209.526 26.0332L218.049 16.9595C218.089 16.9166 218.138 16.8823 218.191 16.8588C218.245 16.8353 218.303 16.823 218.362 16.8226H220.664C220.747 16.8238 220.828 16.8493 220.897 16.8959C220.967 16.9425 221.021 17.0083 221.054 17.0853C221.087 17.1623 221.097 17.2472 221.083 17.3299C221.07 17.4126 221.032 17.4895 220.976 17.5512L214.855 24.0768C214.84 24.0952 214.833 24.1179 214.833 24.1412C214.833 24.1645 214.84 24.1872 214.855 24.2056L221.66 33.8228C221.706 33.8872 221.733 33.9629 221.739 34.0417C221.744 34.1205 221.728 34.1993 221.692 34.2696C221.656 34.3398 221.602 34.3987 221.535 34.4399C221.468 34.4811 221.391 34.503 221.312 34.5031H218.954C218.885 34.5032 218.818 34.4864 218.757 34.4541C218.696 34.4218 218.644 34.3751 218.606 34.318L212.977 26.2667C212.967 26.2556 212.955 26.2467 212.942 26.2405C212.928 26.2344 212.914 26.2313 212.899 26.2313C212.884 26.2313 212.87 26.2344 212.856 26.2405C212.843 26.2467 212.831 26.2556 212.821 26.2667L209.382 29.8254C209.365 29.844 209.355 29.8683 209.354 29.8938V33.6417C209.354 33.8691 209.264 34.0872 209.104 34.248C208.944 34.4088 208.727 34.4991 208.501 34.4991H207.384C207.158 34.4991 206.94 34.4089 206.78 34.2482C206.619 34.0875 206.529 33.8694 206.527 33.6417V11.0982C206.525 10.9842 206.546 10.871 206.588 10.7651C206.63 10.6592 206.692 10.5628 206.772 10.4814C206.851 10.4001 206.946 10.3355 207.05 10.2914C207.155 10.2473 207.267 10.2246 207.38 10.2246Z" fill="#004737"/>
<path d="M222.521 25.6632C222.521 20.2931 225.9 16.6177 230.865 16.6177C235.829 16.6177 239.068 19.7697 239.204 25.0071C239.204 25.2647 239.204 25.5384 239.168 25.8122C239.16 25.9211 239.111 26.0231 239.032 26.0976C238.952 26.1722 238.848 26.214 238.739 26.2147H225.484V26.4563C225.588 29.8217 227.69 32.1767 231.037 32.1767C233.403 32.1767 235.268 30.969 235.945 28.8837C235.97 28.7961 236.023 28.7188 236.095 28.6631C236.167 28.6074 236.254 28.5761 236.345 28.5738H238.347C238.412 28.5756 238.476 28.5924 238.534 28.6228C238.591 28.6531 238.642 28.6964 238.68 28.7492C238.719 28.802 238.745 28.8629 238.756 28.9274C238.768 28.9919 238.765 29.0582 238.747 29.1213C237.879 32.374 235.076 34.7088 231.221 34.7088C225.968 34.7129 222.521 31.0737 222.521 25.6632ZM235.945 23.8638C235.974 23.8634 236.002 23.857 236.028 23.845C236.054 23.833 236.078 23.8156 236.097 23.7941C236.116 23.7725 236.131 23.7472 236.14 23.7197C236.149 23.6922 236.152 23.6631 236.149 23.6343C235.793 20.7278 233.747 19.1136 230.897 19.1136C229.631 19.1017 228.404 19.5542 227.446 20.3864C226.488 21.2185 225.864 22.3732 225.692 23.6343C225.689 23.6629 225.691 23.6919 225.7 23.7194C225.708 23.7469 225.723 23.7723 225.741 23.7939C225.76 23.8155 225.784 23.8329 225.81 23.845C225.836 23.857 225.864 23.8634 225.892 23.8638H235.945Z" fill="#004737"/>
<path d="M247.21 31.903C245.692 31.903 245.176 31.3474 245.176 29.858V20.289C245.176 20.1761 245.197 20.0642 245.24 19.9597C245.282 19.8552 245.345 19.7602 245.424 19.6801C245.504 19.6001 245.598 19.5366 245.701 19.4932C245.805 19.4499 245.916 19.4276 246.029 19.4276H248.871C249.097 19.4276 249.314 19.3372 249.474 19.1764C249.634 19.0156 249.724 18.7975 249.724 18.5701V17.6885C249.724 17.5755 249.703 17.4636 249.66 17.3591C249.618 17.2546 249.555 17.1596 249.476 17.0796C249.396 16.9995 249.302 16.936 249.198 16.8927C249.095 16.8493 248.983 16.827 248.871 16.827H246.029C245.803 16.827 245.586 16.7367 245.426 16.5759C245.266 16.4151 245.176 16.197 245.176 15.9696V12.7491C245.175 12.5213 245.084 12.3032 244.924 12.1425C244.763 11.9818 244.546 11.8916 244.319 11.8916H243.202C242.976 11.8916 242.759 11.9819 242.599 12.1427C242.439 12.3035 242.35 12.5216 242.35 12.7491V16.0621C242.35 16.2896 242.439 16.5077 242.599 16.6685C242.759 16.8293 242.976 16.9196 243.202 16.9196H244.267C244.38 16.9196 244.491 16.9419 244.594 16.9853C244.698 17.0286 244.792 17.0921 244.872 17.1722C244.951 17.2522 245.014 17.3472 245.056 17.4517C245.099 17.5562 245.12 17.6682 245.12 17.7811V18.5178C245.12 18.6307 245.099 18.7427 245.056 18.8472C245.014 18.9517 244.951 19.0466 244.872 19.1267C244.792 19.2067 244.698 19.2703 244.594 19.3136C244.491 19.3569 244.38 19.3793 244.267 19.3793H243.202C242.976 19.3793 242.759 19.4696 242.599 19.6304C242.439 19.7912 242.35 20.0093 242.35 20.2367V29.9183C242.35 33.0382 243.551 34.5277 246.933 34.5277H249.155C249.267 34.5277 249.378 34.5055 249.482 34.4624C249.585 34.4193 249.679 34.3562 249.758 34.2765C249.838 34.1969 249.9 34.1024 249.943 33.9984C249.986 33.8943 250.008 33.7828 250.008 33.6702V32.7685C250.008 32.6559 249.986 32.5444 249.943 32.4403C249.9 32.3363 249.838 32.2418 249.758 32.1622C249.679 32.0825 249.585 32.0194 249.482 31.9763C249.378 31.9332 249.267 31.911 249.155 31.911L247.21 31.903Z" fill="#004737"/>
<path d="M167.729 11.0982V12.2616C167.729 12.4901 167.639 12.7092 167.478 12.8707C167.317 13.0323 167.1 13.1231 166.872 13.1231H165.579C165.398 13.1268 165.223 13.1886 165.079 13.2993C164.935 13.4101 164.83 13.5641 164.779 13.739L160.171 29.5476C160.165 29.5685 160.152 29.5869 160.135 29.5999C160.117 29.613 160.096 29.6201 160.075 29.6201C160.053 29.6201 160.032 29.613 160.015 29.5999C159.997 29.5869 159.985 29.5685 159.978 29.5476L155.326 13.7229C155.274 13.5447 155.166 13.3883 155.018 13.2772C154.87 13.1662 154.691 13.1064 154.506 13.1069H153.133C152.905 13.1069 152.687 13.0162 152.527 12.8546C152.366 12.6931 152.276 12.474 152.276 12.2455V11.0821C152.276 10.8547 152.186 10.6365 152.026 10.4757C151.866 10.3149 151.649 10.2246 151.423 10.2246H148.601C148.375 10.2246 148.158 10.3149 147.998 10.4757C147.838 10.6365 147.748 10.8547 147.748 11.0821V33.6256C147.748 33.853 147.838 34.0711 147.998 34.2319C148.158 34.3927 148.375 34.483 148.601 34.483H149.834C149.946 34.4835 150.058 34.4618 150.161 34.4189C150.265 34.3761 150.36 34.313 150.439 34.2333C150.519 34.1536 150.582 34.0589 150.625 33.9546C150.668 33.8503 150.691 33.7385 150.691 33.6256V13.3243C150.691 13.271 150.712 13.2198 150.749 13.182C150.787 13.1443 150.838 13.1231 150.891 13.1231H151.555C151.74 13.1225 151.92 13.1823 152.068 13.2933C152.216 13.4044 152.324 13.5608 152.376 13.739L158.301 33.9154C158.335 34.0711 158.417 34.2119 158.536 34.3175C158.655 34.4231 158.804 34.4881 158.962 34.5031H161.043C161.201 34.4885 161.35 34.4236 161.468 34.3178C161.586 34.212 161.667 34.071 161.7 33.9154L167.629 13.739C167.679 13.5637 167.784 13.4094 167.928 13.2985C168.073 13.1877 168.248 13.1262 168.43 13.1231H169.098C169.151 13.1231 169.202 13.1443 169.24 13.182C169.277 13.2198 169.298 13.271 169.298 13.3243V33.6497C169.298 33.8771 169.388 34.0952 169.548 34.256C169.708 34.4168 169.925 34.5072 170.151 34.5072H171.388C171.614 34.5072 171.831 34.4168 171.991 34.256C172.151 34.0952 172.241 33.8771 172.241 33.6497V11.1062C172.241 10.8788 172.151 10.6607 171.991 10.4999C171.831 10.3391 171.614 10.2488 171.388 10.2488H168.566C168.344 10.2529 168.132 10.344 167.976 10.5026C167.82 10.6613 167.731 10.8749 167.729 11.0982Z" fill="#004737"/>
<path d="M62.7999 10.8491H64.8017C64.914 10.8486 65.0254 10.8704 65.1293 10.9132C65.2332 10.9561 65.3276 11.0192 65.4072 11.0988C65.4869 11.1785 65.55 11.2732 65.5931 11.3775C65.6363 11.4818 65.6584 11.5936 65.6584 11.7066V34.2501C65.6574 34.4779 65.5666 34.6959 65.4061 34.8566C65.2455 35.0173 65.0282 35.1076 64.8017 35.1075H62.7999C62.688 35.1075 62.5771 35.0854 62.4737 35.0423C62.3702 34.9992 62.2762 34.936 62.197 34.8564C62.1178 34.7768 62.055 34.6823 62.0122 34.5782C61.9693 34.4742 61.9473 34.3627 61.9473 34.2501V11.7066C61.9473 11.594 61.9693 11.4825 62.0122 11.3785C62.055 11.2744 62.1178 11.1799 62.197 11.1003C62.2762 11.0206 62.3702 10.9575 62.4737 10.9144C62.5771 10.8713 62.688 10.8491 62.7999 10.8491Z" fill="#004737"/>
<path d="M68.668 26.2878C68.668 20.813 72.1469 17.1738 77.3553 17.1738C82.4557 17.1738 85.8666 20.4306 85.9707 25.6276C85.9712 25.976 85.9526 26.324 85.9147 26.6703C85.902 26.7745 85.8518 26.8705 85.7737 26.9402C85.6955 27.0099 85.5948 27.0485 85.4903 27.0487H72.5553V27.2902C72.6553 30.3054 74.557 32.282 77.4835 32.282C79.6413 32.282 81.2386 31.2555 81.8391 29.464C81.866 29.3779 81.9191 29.3024 81.9909 29.2482C82.0628 29.194 82.1497 29.1639 82.2395 29.1621H85.1219C85.1862 29.1618 85.2497 29.1761 85.3077 29.2038C85.3658 29.2315 85.4168 29.272 85.4572 29.3222C85.4975 29.3725 85.5262 29.4312 85.5409 29.4941C85.5557 29.557 85.5561 29.6224 85.5423 29.6855C84.7416 32.9261 81.8472 35.3213 77.6917 35.3213C72.155 35.3374 68.668 31.7305 68.668 26.2878ZM81.8792 24.3113C81.9082 24.311 81.9368 24.3044 81.9631 24.2922C81.9894 24.2799 82.0129 24.2621 82.0318 24.24C82.0507 24.2179 82.0647 24.192 82.0729 24.1641C82.0811 24.1361 82.0834 24.1067 82.0794 24.0778C81.6791 21.5899 79.8975 20.189 77.3874 20.189C76.2718 20.1517 75.1814 20.5275 74.3232 21.2451C73.4649 21.9627 72.8985 22.9721 72.7314 24.0818C72.7274 24.1105 72.7295 24.1397 72.7377 24.1675C72.746 24.1953 72.7601 24.2209 72.7791 24.2427C72.7981 24.2645 72.8216 24.2819 72.8479 24.2937C72.8742 24.3056 72.9027 24.3115 72.9316 24.3113H81.8792Z" fill="#004737"/>
<path d="M88.3125 26.2878C88.3125 20.813 91.8315 17.1738 97.172 17.1738C101.516 17.1738 104.29 19.4765 105.179 23.1801C105.194 23.2428 105.196 23.3081 105.183 23.3715C105.171 23.4348 105.144 23.4946 105.106 23.5465C105.068 23.5984 105.018 23.6412 104.962 23.6718C104.905 23.7024 104.843 23.7201 104.778 23.7235H101.74C101.649 23.7209 101.561 23.6891 101.488 23.6326C101.416 23.5761 101.364 23.4979 101.34 23.4095C100.787 21.5175 99.3378 20.3621 97.148 20.3621C94.1494 20.3621 92.1838 22.7775 92.1838 26.2878C92.1838 29.7982 94.1494 32.1491 97.148 32.1491C99.3018 32.1491 100.779 30.9656 101.308 29.1018C101.332 29.0126 101.383 28.9335 101.455 28.8763C101.528 28.819 101.616 28.7866 101.708 28.7837H104.787C104.85 28.7866 104.913 28.8037 104.97 28.8338C105.026 28.864 105.076 28.9064 105.114 28.958C105.152 29.0097 105.179 29.0692 105.191 29.1323C105.204 29.1955 105.202 29.2607 105.187 29.3232C104.33 33.0308 101.4 35.3374 97.088 35.3374C91.7274 35.3374 88.3125 31.8351 88.3125 26.2878Z" fill="#004737"/>
<path d="M117.957 26.2556C117.957 20.8452 121.56 17.1738 126.953 17.1738C132.345 17.1738 135.952 20.8452 135.952 26.2556C135.952 31.6661 132.349 35.3374 126.953 35.3374C121.556 35.3374 117.957 31.6983 117.957 26.2556ZM132.157 26.2556C132.157 22.8218 130.091 20.3621 126.953 20.3621C123.814 20.3621 121.796 22.8218 121.796 26.2556C121.796 29.6895 123.83 32.1491 126.965 32.1491C130.099 32.1491 132.157 29.6855 132.157 26.2556Z" fill="#004737"/>
<path d="M113.41 31.8349C112.097 31.8349 111.581 31.3156 111.581 29.9268V21.5333C111.581 21.3048 111.671 21.0857 111.832 20.9242C111.992 20.7626 112.21 20.6719 112.437 20.6719H114.992C115.104 20.6719 115.214 20.6497 115.318 20.6066C115.421 20.5635 115.515 20.5003 115.594 20.4207C115.674 20.3411 115.736 20.2466 115.779 20.1425C115.822 20.0385 115.844 19.927 115.844 19.8144V18.1719C115.844 18.0593 115.822 17.9478 115.779 17.8438C115.736 17.7398 115.674 17.6452 115.594 17.5656C115.515 17.486 115.421 17.4228 115.318 17.3797C115.214 17.3366 115.104 17.3145 114.992 17.3145H112.425C112.313 17.315 112.202 17.2932 112.098 17.2504C111.994 17.2075 111.899 17.1444 111.82 17.0648C111.74 16.9851 111.677 16.8904 111.634 16.7861C111.591 16.6818 111.569 16.57 111.569 16.457V13.2647C111.569 13.0373 111.479 12.8192 111.319 12.6584C111.159 12.4976 110.942 12.4072 110.716 12.4072H108.714C108.602 12.4067 108.491 12.4285 108.387 12.4713C108.283 12.5142 108.188 12.5773 108.109 12.6569C108.029 12.7366 107.966 12.8313 107.923 12.9356C107.88 13.0399 107.857 13.1518 107.857 13.2647V16.5053C107.857 16.6183 107.88 16.7301 107.923 16.8344C107.966 16.9387 108.029 17.0334 108.109 17.1131C108.188 17.1927 108.283 17.2558 108.387 17.2987C108.491 17.3415 108.602 17.3633 108.714 17.3628H110.716C110.828 17.3628 110.939 17.3851 111.043 17.4284C111.147 17.4718 111.241 17.5353 111.32 17.6153C111.399 17.6954 111.462 17.7904 111.505 17.8949C111.547 17.9994 111.569 18.1113 111.569 18.2243V19.7339C111.569 19.9613 111.479 20.1794 111.319 20.3402C111.159 20.501 110.942 20.5913 110.716 20.5913H108.714C108.488 20.5913 108.27 20.6815 108.11 20.8422C107.949 21.0029 107.858 21.221 107.857 21.4488V30.3052C107.857 33.5257 109.271 35.1359 112.662 35.1359H115.392C115.618 35.1359 115.836 35.0457 115.996 34.885C116.157 34.7243 116.248 34.5062 116.249 34.2785V32.7004C116.248 32.4726 116.157 32.2545 115.996 32.0938C115.836 31.9332 115.618 31.843 115.392 31.843L113.41 31.8349Z" fill="#004737"/>
<path d="M59.292 13.5101V11.7227C59.292 11.6101 59.2699 11.4986 59.227 11.3946C59.1842 11.2905 59.1214 11.196 59.0422 11.1164C58.963 11.0368 58.8691 10.9736 58.7656 10.9305C58.6621 10.8874 58.5512 10.8652 58.4393 10.8652H48.5348C48.4228 10.8652 48.3119 10.8874 48.2085 10.9305C48.105 10.9736 48.0111 11.0368 47.9319 11.1164C47.8527 11.196 47.7899 11.2905 47.747 11.3946C47.7042 11.4986 47.6821 11.6101 47.6821 11.7227V13.3652C47.6821 13.5787 47.5977 13.7835 47.4476 13.9345C47.2974 14.0854 47.0938 14.1703 46.8815 14.1703H44.7356C44.5084 14.1703 44.2905 14.261 44.1298 14.4226C43.9691 14.5842 43.8789 14.8033 43.8789 15.0318V20.7441C43.8789 20.9726 43.9691 21.1917 44.1298 21.3533C44.2905 21.5148 44.5084 21.6056 44.7356 21.6056H46.8815C47.0938 21.6056 47.2974 21.6904 47.4476 21.8414C47.5977 21.9924 47.6821 22.1972 47.6821 22.4107V23.9324C47.6821 24.146 47.5977 24.3507 47.4476 24.5017C47.2974 24.6527 47.0938 24.7375 46.8815 24.7375H44.7356C44.5084 24.7375 44.2905 24.8283 44.1298 24.9899C43.9691 25.1514 43.8789 25.3706 43.8789 25.599V34.2702C43.88 34.498 43.9706 34.7161 44.1312 34.8768C44.2917 35.0375 44.5091 35.1277 44.7356 35.1277H46.9855C47.212 35.1277 47.4293 35.0375 47.5899 34.8768C47.7504 34.7161 47.8412 34.498 47.8422 34.2702V25.744C47.8422 25.5304 47.9266 25.3256 48.0767 25.1747C48.2269 25.0237 48.4306 24.9388 48.6429 24.9388H56.4375C56.5495 24.9388 56.6604 24.9167 56.7639 24.8736C56.8674 24.8305 56.9613 24.7673 57.0405 24.6877C57.1197 24.6081 57.1825 24.5135 57.2253 24.4095C57.2682 24.3055 57.2903 24.194 57.2903 24.0814V22.29C57.2903 22.1774 57.2682 22.0659 57.2253 21.9618C57.1825 21.8578 57.1197 21.7633 57.0405 21.6837C56.9613 21.604 56.8674 21.5409 56.7639 21.4978C56.6604 21.4547 56.5495 21.4325 56.4375 21.4325H48.6429C48.4306 21.4325 48.2269 21.3477 48.0767 21.1967C47.9266 21.0457 47.8422 20.8409 47.8422 20.6274V15.1727C47.8422 14.9591 47.9266 14.7544 48.0767 14.6034C48.2269 14.4524 48.4306 14.3675 48.6429 14.3675H58.4352C58.5476 14.3681 58.6588 14.3463 58.7628 14.3034C58.8667 14.2606 58.9612 14.1975 59.0408 14.1178C59.1204 14.0381 59.1836 13.9434 59.2267 13.8391C59.2698 13.7349 59.292 13.623 59.292 13.5101Z" fill="#004737"/>
<path d="M33.8868 12.0421V3.84898C33.888 3.58788 33.8387 3.32913 33.7419 3.08768C33.6451 2.84623 33.5026 2.62685 33.3228 2.44223C33.1429 2.25761 32.9292 2.11141 32.694 2.01204C32.4588 1.91267 32.2067 1.86212 31.9523 1.8633H17.1389C16.8845 1.86212 16.6325 1.91267 16.3973 2.01204C16.162 2.11141 15.9484 2.25761 15.7685 2.44223C15.5887 2.62685 15.4461 2.84623 15.3493 3.08768C15.2525 3.32913 15.2033 3.58788 15.2044 3.84898V11.425C15.2044 11.6865 15.1541 11.9454 15.0564 12.1869C14.9586 12.4284 14.8154 12.6477 14.6348 12.8322C14.4543 13.0167 14.24 13.1628 14.0043 13.262C13.7686 13.3613 13.5161 13.4118 13.2613 13.4106H2.72636C2.211 13.4106 1.71669 13.6208 1.35228 13.9948C0.987864 14.3689 0.783203 14.8762 0.783203 15.4052V22.7039C0.783203 23.2329 0.987864 23.7403 1.35228 24.1143C1.71669 24.4884 2.211 24.6986 2.72636 24.6986H13.2613C13.5161 24.6974 13.7686 24.7479 14.0043 24.8471C14.24 24.9464 14.4543 25.0925 14.6348 25.277C14.8154 25.4615 14.9586 25.6808 15.0564 25.9223C15.1541 26.1638 15.2044 26.4227 15.2044 26.6842V32.3819C15.2021 32.9093 14.9964 33.4144 14.6323 33.7865C14.2681 34.1586 13.7751 34.3676 13.2613 34.3675H2.72636C2.211 34.3675 1.71669 34.5777 1.35228 34.9517C0.987864 35.3258 0.783203 35.8331 0.783203 36.3622V40.4677C0.783203 40.9967 0.987864 41.504 1.35228 41.8781C1.71669 42.2522 2.211 42.4623 2.72636 42.4623H13.8626C14.378 42.4623 14.8722 42.2522 15.2366 41.8781C15.601 41.504 15.8057 40.9967 15.8057 40.4677V37.0151C15.8046 36.7536 15.8537 36.4944 15.9504 36.2525C16.0471 36.0105 16.1894 35.7906 16.3692 35.6053C16.5489 35.4199 16.7626 35.2728 16.9978 35.1725C17.2331 35.0721 17.4854 35.0205 17.7402 35.0205H31.7606C32.0154 35.0217 32.2679 34.9712 32.5036 34.8719C32.7393 34.7726 32.9536 34.6266 33.1342 34.4421C33.3147 34.2576 33.458 34.0383 33.5557 33.7968C33.6535 33.5553 33.7038 33.2963 33.7038 33.0348V26.1028C33.7038 25.8413 33.6535 25.5824 33.5557 25.3409C33.458 25.0994 33.3147 24.8801 33.1342 24.6956C32.9536 24.5111 32.7393 24.365 32.5036 24.2657C32.2679 24.1665 32.0154 24.116 31.7606 24.1172H17.7402C17.4854 24.1172 17.2331 24.0655 16.9978 23.9652C16.7626 23.8648 16.5489 23.7177 16.3692 23.5324C16.1894 23.3471 16.0471 23.1271 15.9504 22.8852C15.8537 22.6432 15.8046 22.3841 15.8057 22.1225V16.0403C15.8046 15.7788 15.8537 15.5196 15.9504 15.2777C16.0471 15.0357 16.1894 14.8158 16.3692 14.6304C16.5489 14.4451 16.7626 14.298 16.9978 14.1977C17.2331 14.0973 17.4854 14.0457 17.7402 14.0457H31.9523C32.2081 14.0469 32.4617 13.9958 32.6981 13.8953C32.9344 13.7948 33.1489 13.647 33.329 13.4604C33.5091 13.2739 33.6512 13.0524 33.747 12.8089C33.8427 12.5654 33.8903 12.3047 33.8868 12.0421Z" fill="#004737"/>
</svg>
