<?xml version="1.0" encoding="UTF-8" standalone="no"?>
<!DOCTYPE svg PUBLIC "-//W3C//DTD SVG 1.1//EN" "http://www.w3.org/Graphics/SVG/1.1/DTD/svg11.dtd">
<svg width="100%" height="100%" viewBox="0 0 315 98" version="1.1" xmlns="http://www.w3.org/2000/svg" xmlns:xlink="http://www.w3.org/1999/xlink" xml:space="preserve" xmlns:serif="http://www.serif.com/" style="fill-rule:evenodd;clip-rule:evenodd;stroke-linejoin:round;stroke-miterlimit:2;">
    <g transform="matrix(1.950793,0,0,1.950793,-16.241238,-8.659146)">
        <g transform="matrix(1.277565,0,0,1.277565,-1146.89545,-3406.484354)">
            <g transform="matrix(1,0,0,1,5.211018,0)">
                <path d="M906.867,2682.043L906.867,2676.444C907.401,2676.004 907.978,2675.607 908.599,2675.252C910.488,2674.173 912.627,2673.633 915.016,2673.633C917.404,2673.633 919.525,2674.228 921.379,2675.418C923.233,2676.608 924.686,2678.168 925.737,2680.1C926.789,2682.031 927.314,2684.092 927.314,2686.284L927.314,2705.84L921.321,2705.84L921.321,2687.479C921.321,2685.055 920.577,2683.074 919.088,2681.536C917.6,2679.997 915.664,2679.228 913.282,2679.228C911.661,2679.228 910.229,2679.579 908.988,2680.282C908.162,2680.75 907.455,2681.337 906.867,2682.043M899.025,2705.84L899.025,2674.297L905.019,2674.297L905.019,2705.84L899.025,2705.84Z" style="fill:rgb(42,103,217);fill-rule:nonzero;"/>
            </g>
            <g transform="matrix(1,0,0,1,2.224607,0)">
                <path d="M950.025,2706.504C946.871,2706.504 944.038,2705.79 941.525,2704.363C939.013,2702.935 937.026,2700.973 935.565,2698.478C934.104,2695.982 933.374,2693.173 933.374,2690.052C933.374,2686.942 934.091,2684.15 935.524,2681.677C936.957,2679.203 938.908,2677.244 941.376,2675.8C943.844,2674.355 946.594,2673.633 949.627,2673.633C952.538,2673.633 955.111,2674.3 957.347,2675.634C959.582,2676.967 961.339,2678.802 962.618,2681.137C963.896,2683.472 964.535,2686.14 964.535,2689.139C964.535,2689.582 964.507,2690.058 964.452,2690.567C964.397,2691.076 964.308,2691.652 964.186,2692.293L937.574,2692.293L937.574,2687.33L961.016,2687.33L958.824,2689.239C958.802,2687.125 958.398,2685.306 957.679,2683.827C956.994,2682.42 955.88,2681.179 954.508,2680.365C953.135,2679.552 951.47,2679.145 949.511,2679.145C947.452,2679.145 945.656,2679.59 944.123,2680.481C942.591,2681.372 941.401,2682.615 940.554,2684.208C939.707,2685.802 939.284,2687.689 939.284,2689.87C939.284,2692.072 939.73,2694.003 940.621,2695.664C941.511,2697.324 942.77,2698.61 944.397,2699.523C946.024,2700.436 947.906,2700.893 950.042,2700.893C951.802,2700.893 953.429,2700.578 954.923,2699.947C956.417,2699.316 957.684,2698.386 958.724,2697.158L962.559,2701.042C961.054,2702.813 959.209,2704.166 957.023,2705.102C954.837,2706.037 952.504,2706.504 950.025,2706.504Z" style="fill:rgb(42,103,217);fill-rule:nonzero;"/>
            </g>
            <path d="M990.749,2705.84L983.441,2695.54L986.943,2690.664L997.987,2705.84L990.749,2705.84Z" style="fill:rgb(42,103,217);fill-rule:nonzero;"/>
            <path d="M982.304,2693.937L980.937,2692.011L979.792,2690.999L967.341,2674.297L974.629,2674.297L983.577,2686.599L985.607,2689.354L982.304,2693.937ZM966.76,2705.84L979.775,2688.342L983.195,2692.692L973.782,2705.84L966.76,2705.84ZM987.097,2688.266L983.763,2683.702L990.433,2674.297L994.795,2674.297L995.497,2676.884L987.097,2688.266Z" style="fill:rgb(42,103,217);fill-rule:nonzero;"/>
            <g transform="matrix(1,0,0,1,-1.930007,-0)">
                <path d="M1015.933,2706.504C1013.023,2706.504 1010.4,2705.782 1008.064,2704.338C1005.729,2702.894 1003.883,2700.935 1002.528,2698.461C1001.172,2695.987 1000.494,2693.212 1000.494,2690.135C1000.494,2687.025 1001.172,2684.231 1002.528,2681.751C1003.883,2679.272 1005.726,2677.299 1008.056,2675.833C1010.386,2674.367 1013,2673.633 1015.9,2673.633C1018.313,2673.633 1020.46,2674.131 1022.342,2675.127C1024.223,2676.124 1025.737,2677.501 1026.882,2679.261C1028.028,2681.021 1028.661,2683.041 1028.783,2685.321L1028.783,2694.8C1028.65,2697.08 1028.019,2699.103 1026.89,2700.868C1025.762,2702.633 1024.254,2704.014 1022.367,2705.01C1020.479,2706.006 1018.335,2706.504 1015.933,2706.504ZM1016.896,2700.843C1019.874,2700.843 1022.267,2699.844 1024.076,2697.847C1025.886,2695.849 1026.791,2693.262 1026.791,2690.085C1026.791,2687.949 1026.379,2686.071 1025.554,2684.449C1024.729,2682.828 1023.573,2681.563 1022.084,2680.656C1020.596,2679.748 1018.855,2679.294 1016.863,2679.294C1014.871,2679.294 1013.111,2679.754 1011.584,2680.672C1010.056,2681.591 1008.853,2682.861 1007.973,2684.482C1007.093,2686.104 1006.653,2687.966 1006.653,2690.069C1006.653,2692.172 1007.093,2694.034 1007.973,2695.655C1008.853,2697.277 1010.062,2698.547 1011.6,2699.465C1013.139,2700.384 1014.904,2700.843 1016.896,2700.843ZM1026.426,2705.84L1026.426,2697.374L1027.521,2689.654L1026.426,2682.034L1026.426,2674.297L1032.419,2674.297L1032.419,2705.84L1026.426,2705.84Z" style="fill:rgb(42,103,217);fill-rule:nonzero;"/>
            </g>
        </g>
        <g transform="matrix(0.101703,0.089242,-0.088387,0.100729,214.221006,-329.366605)">
            <path d="M1157.498,2321.44L1230.639,2415.823C1230.639,2415.823 1181.476,2414.888 1156.913,2415.667C1132.289,2416.448 1082.898,2420.51 1082.898,2420.51L1157.498,2321.44Z" style="fill:rgb(42,103,217);"/>
        </g>
    </g>
</svg>
