<?xml version="1.0" encoding="UTF-8" standalone="no"?>
<!DOCTYPE svg PUBLIC "-//W3C//DTD SVG 1.1//EN" "http://www.w3.org/Graphics/SVG/1.1/DTD/svg11.dtd">
<svg width="100%" height="100%" viewBox="0 0 189 189" version="1.1" xmlns="http://www.w3.org/2000/svg" xmlns:xlink="http://www.w3.org/1999/xlink" xml:space="preserve" xmlns:serif="http://www.serif.com/" style="fill-rule:evenodd;clip-rule:evenodd;stroke-linejoin:round;stroke-miterlimit:2;">
    <g>
        <g transform="matrix(1.098518,0,0,1.098518,-10.380994,-34.932868)">
            <path d="M181.5,74.812L181.5,160.837C181.5,184.577 162.227,203.85 138.488,203.85L52.463,203.85C28.723,203.85 9.45,184.577 9.45,160.837L9.45,74.812C9.45,51.073 28.723,31.8 52.463,31.8L138.488,31.8C162.227,31.8 181.5,51.073 181.5,74.812Z" style="fill:rgb(37,99,235);"/>
        </g>
        <g transform="matrix(2.548781,0,0,2.548781,-2273.975032,-6759.563654)">
            <path d="M906.867,2682.043L906.867,2676.444C907.401,2676.004 907.978,2675.607 908.599,2675.252C910.488,2674.173 912.627,2673.633 915.016,2673.633C917.404,2673.633 919.525,2674.228 921.379,2675.418C923.233,2676.608 924.686,2678.168 925.737,2680.1C926.789,2682.031 927.314,2684.092 927.314,2686.284L927.314,2705.84L921.321,2705.84L921.321,2687.479C921.321,2685.055 920.577,2683.074 919.088,2681.536C917.6,2679.997 915.664,2679.228 913.282,2679.228C911.661,2679.228 910.229,2679.579 908.988,2680.282C908.162,2680.75 907.455,2681.337 906.867,2682.043M899.025,2705.84L899.025,2674.297L905.019,2674.297L905.019,2705.84L899.025,2705.84Z" style="fill:white;fill-rule:nonzero;"/>
        </g>
        <g transform="matrix(2.548781,0,0,2.548781,-2370.093568,-6759.563654)">
            <path d="M990.749,2705.84L983.441,2695.54L986.943,2690.664L997.987,2705.84L990.749,2705.84Z" style="fill:white;fill-rule:nonzero;"/>
        </g>
        <g transform="matrix(2.548781,0,0,2.548781,-2370.093568,-6759.563654)">
            <path d="M982.304,2693.937L980.937,2692.011L979.792,2690.999L967.341,2674.297L974.629,2674.297L983.577,2686.599L985.607,2689.354L982.304,2693.937ZM966.76,2705.84L979.775,2688.342L983.195,2692.692L973.782,2705.84L966.76,2705.84ZM987.097,2688.266L983.763,2683.702L990.433,2674.297L994.795,2674.297L995.497,2676.884L987.097,2688.266Z" style="fill:white;fill-rule:nonzero;"/>
        </g>
        <g transform="matrix(0.202901,0.17804,-0.176335,0.200958,345.374281,-620.622142)">
            <path d="M1157.498,2321.44L1230.639,2415.823L1156.913,2415.667L1082.898,2420.51L1157.498,2321.44Z" style="fill:white;"/>
        </g>
    </g>
</svg>
